# AST/ASF file generated using VICON BodyLanguage
# -----------------------------------------------
:version 1.10
:name VICON
:units
  mass 1.0
  length 0.45
  angle deg
:documentation
   .ast/.asf automatically generated from VICON data using
   VICON BodyBuilder and BodyLanguage model FoxedUp or BRILLIANT.MOD
:root
   order TX TY TZ RX RY RZ
   axis XYZ
   position 0 0 0  
   orientation 0 0 0 
:bonedata
  begin
     id 1 
     name lhipjoint
     direction 0.522423 -0.726805 0.445902 
     length 2.25074 
     axis 0 0 0  XYZ
  end
  begin
     id 2 
     name lfemur
     direction 0.34202 -0.939693 0  
     length 6.54609  
     axis 0 0 20  XYZ
    dof rx ry rz
    limits (-160.0 20.0)
           (-70.0 70.0)
           (-60.0 70.0)
  end
  begin
     id 3 
     name ltibia
     direction 0.34202 -0.939693 0   
     length 7.7528   
     axis 0 0 20   XYZ
    dof rx
    limits (-10.0 170.0)
  end
  begin
     id 4 
     name lfoot
     direction 0.143696 -0.394801 0.90746   
     length 1.73269   
     axis -90 7.62852e-016 20   XYZ
    dof rx rz
    limits (-45.0 90.0)
           (-70.0 20.0)
  end
  begin
     id 5 
     name ltoes
     direction 1.53633e-011 -4.21912e-011 1   
     length 0.858383   
     axis -90 7.62852e-016 20   XYZ
    dof rx
    limits (-90.0 20.0)
  end
  begin
     id 6 
     name rhipjoint
     direction -0.515943 -0.73016 0.447961   
     length 2.2404  
     axis 0 0 0  XYZ 
  end
  begin
     id 7 
     name rfemur
     direction -0.34202 -0.939693 0   
     length 6.84377   
     axis 0 0 -20   XYZ
    dof rx ry rz
    limits (-160.0 20.0)
           (-70.0 70.0)
           (-70.0 60.0)
  end
  begin
     id 8 
     name rtibia
     direction -0.34202 -0.939693 0   
     length 7.57596   
     axis 0 0 -20   XYZ
    dof rx
    limits (-10.0 170.0)
 end
 begin
     id 9 
     name rfoot
     direction -0.0999372 -0.274575 0.956358   
     length 1.78783  
     axis -90 -7.62852e-016 -20   XYZ
    dof rx rz
    limits (-45.0 90.0)
           (-20.0 70.0)
  end
  begin
     id 10 
     name rtoes
     direction -1.53535e-011 -4.21895e-011 1   
     length 0.898614   
     axis -90 -7.62852e-016 -20   XYZ
    dof rx
    limits (-90.0 20.0)
  end
  begin
     id 11 
     name lowerback
     direction -0.011775 0.996164 -0.0867116   
     length 1.91499   
     axis 0 0 0   XYZ
    dof rx ry rz
    limits (-20.0 45.0)
           (-30.0 30.0)
           (-30.0 30.0)
  end
  begin
     id 12 
     name upperback
     direction -0.00189771 0.999673 -0.0254833   
     length 1.92213   
     axis 0 0 0   XYZ
    dof rx ry rz
    limits (-20.0 45.0)
           (-30.0 30.0)
           (-30.0 30.0)
  end
  begin
     id 13 
     name thorax
     direction 0.00335995 0.999878 0.0152401   
     length 1.93138   
     axis 0 0 0   XYZ
    dof rx ry rz
    limits (-20.0 45.0)
           (-30.0 30.0)
           (-30.0 30.0)
  end
  begin
     id 14 
     name lowerneck
     direction 0.00233191 0.998509 0.0545404   
     length 1.59408   
     axis 0 0 0   XYZ
    dof rx ry rz
    limits (-20.0 45.0)
           (-30.0 30.0)
           (-30.0 30.0)
  end
  begin
     id 15 
     name upperneck
     direction 0.07881 0.9956 -0.0506934   
     length 1.59344   
     axis 0 0 0   XYZ
    dof rx ry rz
    limits (-20.0 45.0)
           (-30.0 30.0)
           (-30.0 30.0)
  end
  begin
     id 16
     name head
     direction 0.0261681 0.999378 -0.0236299  
     length 1.60935  
     axis 0 0 0   XYZ
    dof rx ry rz
    limits (-20.0 45.0)
           (-30.0 30.0)
           (-30.0 30.0)
  end
  begin
     id 17 
     name lclavicle
     direction 0.96643 0.252035 0.0499195  
     length 3.82153  
     axis 0 0 0   XYZ
    dof ry rz
    limits (-20.0 10.0)
           (0.0 20.0)
  end
  begin
     id 18 
     name lhumerus
     direction 1 -4.48967e-011 -2.01614e-018   
     length 4.87796   
     axis 180 -30 -90   XYZ
    dof rx ry rz
    limits (-60.0 90.0)
           (-90.0 90.0)
           (-90.0 90.0)
  end
  begin
     id 19
     name lradius
     direction 1 -4.48958e-011 3.1409e-027   
     length 3.23169   
     axis 180 -30 -90   XYZ
    dof rx
    limits (-10.0 170.0)
  end
  begin
     id 20
     name lwrist
     direction 1 -4.48924e-011 1.0365e-027   
     length 1.61584   
     axis -2.56395e-016 90 90   XYZ
    dof ry
    limits (-180.0 0.0)
 end
  begin
     id 21 
     name lhand
     direction 1 -4.49055e-011 2.09488e-027   
     length 0.731324   
     axis -1.32723e-015 90 90   XYZ
    dof rx rz
    limits (-90.0 90.0)
           (-45.0 45.0)
  end
  begin
     id 22 
     name lfingers
     direction 1 -4.48935e-011 4.14981e-027   
     length 0.589612   
     axis -2.6545e-015 90 90   XYZ
    dof rx
    limits (0.0 90.0)
  end
  begin
     id 23
     name lthumb
     direction 0.707107 -6.35097e-011 0.707107   
     length 0.846569   
     axis -90 45 5.05613e-014   XYZ
    dof rx rz
    limits (-45.0 45.0)
           (-45.0 45.0)
  end
  begin
     id 24 
     name rclavicle
     direction -0.979337 0.201016 0.0221522   
     length 3.73827  
     axis 0 0 0   XYZ 
    dof ry rz
    limits (-10.0 20.0)
           (-20.0 0.0)
  end
  begin
     id 25 
     name rhumerus
     direction -1 -4.48971e-011 1.65907e-027  
     length 4.9143   
     axis 180 30 90   XYZ
    dof rx ry rz
    limits (-90.0 60.0)
           (-90.0 90.0)
           (-90.0 90.0)
  end
  begin
     id 26 
     name rradius
     direction -1 -4.4894e-011 2.17871e-028   
     length 3.29093   
     axis 180 30 90   XYZ
    dof rx
    limits (-10.0 170.0)
  end
  begin
     id 27 
     name rwrist
     direction -1 -4.48971e-011 1.04038e-027   
     length 1.64546   
     axis -2.56395e-016 -90 -90   XYZ
    dof ry
    limits (-180.0 0.0)
  end
  begin
     id 28
     name rhand
     direction -1 -4.49017e-011 2.08843e-027   
     length 0.54512   
     axis -1.32723e-015 -90 -90   XYZ
    dof rx rz
    limits (-90.0 90.0)
           (-45.0 45.0)
  end
  begin
     id 29
     name rfingers
     direction -1 -4.48918e-011 4.1439e-027   
     length 0.43949   
     axis -2.6545e-015 -90 -90   XYZ
    dof rx
    limits (0.0 90.0)
  end
  begin
     id 30
     name rthumb
     direction -0.707107 -6.35065e-011 0.707107   
     length 0.631022   
     axis -90 -45 -5.05613e-014   XYZ
    dof rx rz
    limits (-45.0 45.0)
           (-45.0 45.0)
  end
:hierarchy
  begin
    root lhipjoint rhipjoint lowerback
    lhipjoint lfemur
    lfemur ltibia
    ltibia lfoot
    lfoot ltoes
    rhipjoint rfemur
    rfemur rtibia
    rtibia rfoot
    rfoot rtoes
    lowerback upperback
    upperback thorax
    thorax lowerneck lclavicle rclavicle
    lowerneck upperneck
    upperneck head
    lclavicle lhumerus
    lhumerus lradius
    lradius lwrist
    lwrist lhand lthumb
    lhand lfingers
    rclavicle rhumerus
    rhumerus rradius
    rradius rwrist
    rwrist rhand rthumb
    rhand rfingers
  end

#!OML:ASF H:\BreakDance\Project 1\Capture day 1\Session 1\Male.ASF
:FULLY-SPECIFIED
:DEGREES
1070
root 6.15557 16.0824 2.8873 -175.989 -9.65415 538.807
lowerback 9.17752 2.42707 3.61897
upperback 5.76339 2.63361 -6.91453
thorax 1.42945 1.2072 -9.59867
lowerneck 1.65512 16.04 9.09425
upperneck -16.5138 19.9906 -16.2897
head -2.51414 10.0859 -6.43811
rclavicle 5.08889e-014 -2.70347e-014
rhumerus -49.2902 25.1777 -103.438
rradius 116.762
rwrist -12.3886
rhand -36.1416 -1.68564
rfingers 7.12502
rthumb -9.24645 -31.4629
lclavicle 5.08889e-014 -2.70347e-014
lhumerus -4.82305 -36.1159 66.3064
lradius 93.0967
lwrist 2.99477
lhand -11.1472 -27.5739
lfingers 7.12502
lthumb 14.8787 1.87186
rfemur -30.2715 -18.0511 27.4598
rtibia 52.0633
rfoot -23.1441 -20.113
rtoes -5.42386
lfemur -79.4053 26.8598 -10.136
ltibia 124.184
lfoot 35.5773 -22.0916
ltoes -15.5776
1071
root 6.2003 16.1232 2.8713 -176.349 -10.8008 539.502
lowerback 8.93984 2.55147 3.21359
upperback 5.77377 2.75377 -7.09729
thorax 1.58062 1.25789 -9.55893
lowerneck 1.61763 15.9653 8.85324
upperneck -16.8203 19.8919 -15.835
head -2.69191 10.0284 -6.3093
rclavicle -3.97569e-014 -1.1609e-013
rhumerus -50.0486 26.1867 -102.59
rradius 116.548
rwrist -12.2402
rhand -36.6462 -2.17457
rfingers 7.12502
rthumb -9.73329 -31.9297
lclavicle -3.97569e-014 -1.1609e-013
lhumerus -5.18285 -33.0233 64.5842
lradius 92.9818
lwrist 5.10146
lhand -12.0706 -27.5764
lfingers 7.12502
lthumb 13.989 1.93289
rfemur -29.282 -17.9984 27.9947
rtibia 51.0891
rfoot -22.648 -20.1675
rtoes -7.892
lfemur -77.4104 27.9295 -10.5621
ltibia 121.068
lfoot 32.8124 -21.7095
ltoes -14.5966
1072
root 6.23499 16.1696 2.85273 -176.722 -11.7635 540.146
lowerback 8.66838 2.70251 2.83605
upperback 5.79609 2.90986 -7.30724
thorax 1.77333 1.32727 -9.5662
lowerneck 1.54946 15.9002 8.64277
upperneck -17.0444 19.8172 -15.3895
head -2.83281 9.98067 -6.17671
rclavicle 1.74931e-014 -7.95139e-014
rhumerus -50.6765 27.2701 -101.731
rradius 116.333
rwrist -11.972
rhand -36.9881 -2.85876
rfingers 7.12502
rthumb -10.0631 -32.5982
lclavicle 1.74931e-014 -7.95139e-014
lhumerus -5.4328 -29.8243 62.793
lradius 92.6178
lwrist 6.90515
lhand -13.0142 -27.6342
lfingers 7.12502
lthumb 13.0795 1.93569
rfemur -28.2882 -18.0111 28.3897
rtibia 50.1327
rfoot -22.2606 -19.567
rtoes -8.39071
lfemur -75.2363 29.1853 -10.8833
ltibia 117.701
lfoot 30.0723 -21.5191
ltoes -13.6616
1073
root 6.25872 16.2184 2.83301 -177.078 -12.5405 540.729
lowerback 8.34947 2.87005 2.47407
upperback 5.81123 3.09146 -7.52979
thorax 1.99111 1.40981 -9.59529
lowerneck 1.48203 15.8588 8.43099
upperneck -17.194 19.7829 -14.9693
head -2.94384 9.9555 -6.04375
rclavicle 9.54166e-015 -7.15625e-014
rhumerus -51.1338 28.4412 -100.826
rradius 116.077
rwrist -11.6172
rhand -37.0668 -3.79113
rfingers 7.12502
rthumb -10.1391 -33.5268
lclavicle 9.54166e-015 -7.15625e-014
lhumerus -5.63337 -26.5013 61.0172
lradius 91.9778
lwrist 8.19883
lhand -14.0142 -27.7838
lfingers 7.12502
lthumb 12.1154 1.84546
rfemur -27.3392 -18.0667 28.621
rtibia 49.2434
rfoot -21.9523 -18.2807
rtoes -6.9782
lfemur -72.9269 30.6364 -11.131
ltibia 114.105
lfoot 27.4381 -21.3057
ltoes -12.3774
1074
root 6.27074 16.2651 2.81276 -177.386 -13.125 541.241
lowerback 7.9539 3.04532 2.1208
upperback 5.80066 3.29011 -7.76029
thorax 2.22819 1.50149 -9.63469
lowerneck 1.4488 15.8496 8.19621
upperneck -17.291 19.7997 -14.5709
head -3.03871 9.96052 -5.91129
rclavicle -7.95139e-016 9.06458e-014
rhumerus -51.3994 29.7395 -99.8618
rradius 115.765
rwrist -11.2617
rhand -36.8489 -4.99529
rfingers 7.12502
rthumb -9.92888 -34.7411
lclavicle -7.95139e-016 9.06458e-014
lhumerus -5.82933 -23.0526 59.2892
lradius 91.0505
lwrist 8.88777
lhand -15.0542 -28.0636
lfingers 7.12502
lthumb 11.1124 1.62216
rfemur -26.4729 -18.1473 28.6903
rtibia 48.4618
rfoot -21.5895 -16.4026
rtoes -4.26666
lfemur -70.5329 32.2787 -11.3266
ltibia 110.321
lfoot 24.8683 -20.831
ltoes -10.8052
1075
root 6.27271 16.3091 2.79245 -177.65 -13.5245 541.685
lowerback 7.49193 3.23387 1.77079
upperback 5.75613 3.5122 -8.0085
thorax 2.47208 1.60462 -9.6923
lowerneck 1.4622 15.8737 7.99204
upperneck -17.3436 19.8718 -14.1981
head -3.11587 9.99536 -5.78868
rclavicle -1.59028e-014 6.04305e-014
rhumerus -51.4526 31.1689 -98.8536
rradius 115.401
rwrist -11.0266
rhand -36.3707 -6.47353
rfingers 7.12502
rthumb -9.46745 -36.2409
lclavicle -1.59028e-014 6.04305e-014
lhumerus -6.01618 -19.5336 57.5869
lradius 89.8341
lwrist 8.98542
lhand -16.084 -28.4764
lfingers 7.12502
lthumb 10.1191 1.26028
rfemur -25.6738 -18.1777 28.5859
rtibia 47.7983
rfoot -21.1516 -13.9218
rtoes -0.14726
lfemur -68.0414 34.0866 -11.4539
ltibia 106.348
lfoot 22.2808 -19.9628
ltoes -9.41755
1076
root 6.26609 16.3512 2.77299 -177.87 -13.8096 542.08
lowerback 6.97615 3.41866 1.45065
upperback 5.67106 3.73716 -8.27683
thorax 2.70779 1.70977 -9.78588
lowerneck 1.50724 15.9207 7.86441
upperneck -17.3352 19.989 -13.8387
head -3.16613 10.0511 -5.67636
rclavicle -3.89618e-014 -9.22361e-014
rhumerus -51.2732 32.7065 -97.8076
rradius 114.995
rwrist -11.0309
rhand -35.6586 -8.18163
rfingers 7.12502
rthumb -8.78038 -37.979
lclavicle -3.89618e-014 -9.22361e-014
lhumerus -6.18658 -15.9883 55.8874
lradius 88.3371
lwrist 8.57315
lhand -17.0519 -28.9915
lfingers 7.12502
lthumb 9.18529 0.788441
rfemur -24.9264 -18.1264 28.3243
rtibia 47.2329
rfoot -20.5523 -10.9201
rtoes 4.96681
lfemur -65.4899 35.94 -11.4746
ltibia 102.193
lfoot 19.7037 -18.5772
ltoes -8.27954
1077
root 6.25138 16.394 2.75391 -178.062 -14.0246 542.461
lowerback 6.41355 3.58766 1.17826
upperback 5.54506 3.95132 -8.55078
thorax 2.92937 1.81122 -9.9095
lowerneck 1.56552 15.9763 7.82363
upperneck -17.248 20.1328 -13.4749
head -3.18424 10.1162 -5.5686
rclavicle -1.19271e-014 1.20861e-013
rhumerus -50.8603 34.3393 -96.7001
rradius 114.568
rwrist -11.3728
rhand -34.7085 -10.0212
rfingers 7.12502
rthumb -7.86344 -39.8549
lclavicle -1.19271e-014 1.20861e-013
lhumerus -6.34614 -12.4109 54.1916
lradius 86.5743
lwrist 7.73611
lhand -17.8967 -29.5852
lfingers 7.12502
lthumb 8.37006 0.228927
rfemur -24.1776 -17.9642 27.9325
rtibia 46.7085
rfoot -19.6614 -7.49516
rtoes 10.4324
lfemur -62.8656 37.7448 -11.313
ltibia 97.848
lfoot 17.084 -16.6396
ltoes -7.73154
1078
root 6.22936 16.4356 2.73655 -178.237 -14.2845 542.882
lowerback 5.82452 3.70138 0.99203
upperback 5.37865 4.10672 -8.80118
thorax 3.11816 1.88742 -10.0533
lowerneck 1.59959 16.0277 7.85627
upperneck -17.0362 20.2869 -13.0763
head -3.15715 10.1813 -5.44969
rclavicle 2.8625e-014 -1.78111e-013
rhumerus -50.2236 36.0747 -95.4869
rradius 114.154
rwrist -12.107
rhand -33.5647 -11.9208
rfingers 7.12502
rthumb -6.75935 -41.7929
lclavicle 2.8625e-014 -1.78111e-013
lhumerus -6.50184 -8.79761 52.5163
lradius 84.5712
lwrist 6.59098
lhand -18.578 -30.1985
lfingers 7.12502
lthumb 7.71248 -0.3591
rfemur -23.4117 -17.6794 27.4773
rtibia 46.1648
rfoot -18.4085 -3.86145
rtoes 15.0827
lfemur -60.218 39.3577 -10.9523
ltibia 93.3221
lfoot 14.3993 -14.3209
ltoes -8.4657
